<svg width="104" height="73" viewBox="0 0 104 73" fill="none" xmlns="http://www.w3.org/2000/svg">
<path d="M87.36 31.734C88.0262 29.9994 88.4 28.1027 88.4 26.125C88.4 17.5332 81.4125 10.5625 72.8 10.5625C69.5987 10.5625 66.6087 11.5352 64.1387 13.1887C59.6375 5.40742 51.2362 0.1875 41.6 0.1875C27.235 0.1875 15.6 11.7945 15.6 26.125C15.6 26.5627 15.6162 27.0004 15.6325 27.4381C6.5325 30.6316 0 39.2883 0 49.4688C0 62.3564 10.4812 72.8125 23.4 72.8125H83.2C94.6887 72.8125 104 63.5236 104 52.0625C104 42.0279 96.85 33.6469 87.36 31.734Z" fill="white"/>
</svg>
