<svg width="117" height="115" viewBox="0 0 117 115" fill="none" xmlns="http://www.w3.org/2000/svg">
<path d="M50.9516 109.345V105.427C50.9516 102.886 49.2341 100.686 46.7797 100.003C28.4942 94.9102 15.0968 78.1927 15.0968 58.3243C15.0968 34.4092 34.5091 15.0514 58.4999 15.0514C82.487 15.0514 101.903 34.4054 101.903 58.3243C101.903 78.1899 88.5081 94.9097 70.2207 100.003C67.7658 100.686 66.0483 102.887 66.0483 105.428V109.343C66.0483 113.038 69.5475 115.729 73.1358 114.807C98.4585 108.304 117.143 85.3214 116.999 58.011C116.829 25.7793 90.7032 -0.0678389 58.374 0.000127815C26.1233 0.0678594 -3.59924e-06 26.1546 -3.59924e-06 58.3243C-3.59924e-06 85.5188 18.6681 108.365 43.9247 114.823C47.4892 115.734 50.9516 113.014 50.9516 109.345Z" fill="white"/>
</svg>
