<svg width="94" height="82" viewBox="0 0 94 82" fill="none" xmlns="http://www.w3.org/2000/svg">
<path d="M28.7679 41.0023H2.93737C1.32182 41.0023 0 39.6843 0 38.0734V32.2156C0 30.6047 1.32182 29.2867 2.93737 29.2867H29.0433C31.9623 29.2867 34.6977 27.2914 35.175 24.4174C35.7809 20.7563 32.9537 17.5711 29.3737 17.5711C26.7852 17.5711 24.5821 19.2552 23.7927 21.58C23.4072 22.7333 22.2139 23.4289 21.0022 23.4289H14.9806C13.1815 23.4289 11.7311 21.818 12.0616 20.0606C13.6404 11.9879 20.8003 5.85546 29.3554 5.85546C39.8381 5.85546 48.2096 15.0266 46.8327 25.7354C45.7129 34.5953 37.7085 41.0023 28.7679 41.0023ZM2.93737 46.8601H64.6222C75.5823 46.8601 84.2292 56.8916 81.8426 68.2228C80.4473 74.8495 75.0682 80.213 68.4224 81.6042C58.2518 83.7277 49.1276 77.0461 47.3284 67.7835C46.9796 66.0261 48.4483 64.4335 50.2291 64.4335H56.2507C57.4807 64.4335 58.6557 65.1292 59.0412 66.2824C59.8306 68.6072 62.0336 70.2914 64.6222 70.2914C68.1838 70.2914 71.0294 67.1062 70.4235 63.445C69.9462 60.5711 67.2291 58.5757 64.2918 58.5757H2.93737C1.32182 58.5757 0 57.2577 0 55.6468V49.789C0 48.1781 1.32182 46.8601 2.93737 46.8601ZM73.4343 41.0023H44.7399C48.2831 37.9636 50.8349 33.8997 52.0466 29.2867H73.4343C78.2993 29.2867 82.2464 25.351 82.2464 20.5C82.2464 15.649 78.2993 11.7133 73.4343 11.7133C70.1481 11.7133 67.3209 13.5255 65.7972 16.1798C65.2648 17.0951 64.2 17.5711 63.1352 17.5711H56.93C54.9289 17.5711 53.4418 15.5941 54.1211 13.7086C57.3889 4.44592 67.0639 -1.81461 77.8771 0.4736C85.4408 2.06619 91.6644 8.08875 93.4268 15.6124C96.5661 29.0121 86.3771 41.0023 73.4343 41.0023Z" fill="white"/>
</svg>
